# xmcd
#
# Track frame offsets: 
#        150
#        25423
#        45888
#        68889
#        84905
#        106585
#        128528
#        153229
#        171967
#
# Disc length: 2665 seconds
#
# Revision: 0
# Processed by: cddbd v1.5.2PL0 Copyright (c) Steve Scherf et al.
# Submitted via: ExactAudioCopy v0.95b3
#
DISCID=5d0a6709
DTITLE=Dismantle - Enter The Forbidden
DYEAR=2012
DGENRE=Thrash Metal
TTITLE0=Revenge of the Wicked
TTITLE1=Enter the Forbidden
TTITLE2=Realm Of The Warmaster
TTITLE3=Illusions
TTITLE4=Secrets From The Dark Room
TTITLE5=Dwelling (In Darkness)
TTITLE6=The Lost Dimension
TTITLE7=Gateways
TTITLE8=The Beyond
EXTD=
EXTT0=
EXTT1=
EXTT2=
EXTT3=
EXTT4=
EXTT5=
EXTT6=
EXTT7=
EXTT8=
PLAYORDER=
